<svg width="31" height="32" viewBox="0 0 31 32" fill="none" xmlns="http://www.w3.org/2000/svg">
<path d="M0.469669 25.4697C0.176777 25.7626 0.176777 26.2374 0.469669 26.5303L5.24264 31.3033C5.53553 31.5962 6.01041 31.5962 6.3033 31.3033C6.59619 31.0104 6.59619 30.5355 6.3033 30.2426L2.06066 26L6.3033 21.7574C6.59619 21.4645 6.59619 20.9896 6.3033 20.6967C6.01041 20.4038 5.53553 20.4038 5.24264 20.6967L0.469669 25.4697ZM30 25.25L1 25.25V26.75L30 26.75V25.25Z" fill="white"/>
<path d="M30.5303 5.46967C30.8232 5.76256 30.8232 6.23744 30.5303 6.53033L25.7574 11.3033C25.4645 11.5962 24.9896 11.5962 24.6967 11.3033C24.4038 11.0104 24.4038 10.5355 24.6967 10.2426L28.9393 6L24.6967 1.75736C24.4038 1.46447 24.4038 0.989593 24.6967 0.696699C24.9896 0.403806 25.4645 0.403806 25.7574 0.696699L30.5303 5.46967ZM1 5.25L30 5.25V6.75L1 6.75L1 5.25Z" fill="white"/>
</svg>
